<?xml version="1.0" encoding="iso-8859-1"?>
<!-- Generator: Adobe Illustrator 19.0.0, SVG Export Plug-In . SVG Version: 6.00 Build 0)  -->
<svg version="1.1" id="Layer_1" xmlns="http://www.w3.org/2000/svg" xmlns:xlink="http://www.w3.org/1999/xlink" x="0px" y="0px"
	 viewBox="0 0 512 512" style="enable-background:new 0 0 512 512;" xml:space="preserve">
<g>
	<g>
		<rect x="361.253" y="250.941" width="15.178" height="15.178"/>
	</g>
</g>
<g>
	<g>
		<rect x="361.253" y="281.296" width="15.178" height="15.178"/>
	</g>
</g>
<g>
	<g>
		<rect x="361.253" y="311.652" width="15.178" height="15.178"/>
	</g>
</g>
<g>
	<g>
		<rect x="361.253" y="220.585" width="15.178" height="15.178"/>
	</g>
</g>
<g>
	<g>
		<rect x="361.253" y="190.229" width="15.178" height="15.178"/>
	</g>
</g>
<g>
	<g>
		<rect x="455.336" y="190.229" width="15.178" height="137.613"/>
	</g>
</g>
<g>
	<g>
		<rect x="422.957" y="190.229" width="15.178" height="137.613"/>
	</g>
</g>
<g>
	<g>
		<rect x="110.798" y="192.759" width="212.49" height="15.178"/>
	</g>
</g>
<g>
	<g>
		<rect x="110.798" y="231.209" width="212.49" height="15.178"/>
	</g>
</g>
<g>
	<g>
		<rect x="110.798" y="271.684" width="212.49" height="15.178"/>
	</g>
</g>
<g>
	<g>
		<rect x="110.798" y="312.158" width="212.49" height="15.178"/>
	</g>
</g>
<g>
	<g>
		<path d="M484.174,132.047h-97.352l-0.286,7.29c-0.375,9.53-8.144,16.994-17.687,16.994s-17.312-7.464-17.687-16.994l-0.286-7.29H0
			v79.823l7.447,0.139c24.907,0.461,45.169,21.104,45.169,46.014c0,24.91-20.262,45.553-45.169,46.015L0,304.177v75.776h350.874
			l0.286-7.29c0.375-9.53,8.144-16.994,17.687-16.994c9.543,0,17.312,7.465,17.687,16.994l0.286,7.29h97.353
			c15.344,0,27.826-12.482,27.826-27.826V159.874C512,144.53,499.518,132.047,484.174,132.047z M496.822,352.127
			c0,6.975-5.673,12.648-12.648,12.648h-83.572c-3.767-14.079-16.548-24.285-31.754-24.285c-15.206,0-27.987,10.206-31.754,24.285
			H15.178v-46.147c13.275-1.86,25.521-8.001,35.062-17.705c11.321-11.514,17.555-26.75,17.555-42.899s-6.234-31.385-17.555-42.899
			c-9.542-9.705-21.787-15.846-35.062-17.706v-50.194h321.917c3.767,14.079,16.548,24.285,31.754,24.285
			s27.987-10.206,31.754-24.285h83.571c6.975,0,12.648,5.674,12.648,12.648V352.127z"/>
	</g>
</g>
<g>
</g>
<g>
</g>
<g>
</g>
<g>
</g>
<g>
</g>
<g>
</g>
<g>
</g>
<g>
</g>
<g>
</g>
<g>
</g>
<g>
</g>
<g>
</g>
<g>
</g>
<g>
</g>
<g>
</g>
</svg>
